REM DIRINDEX 1\2\6,1\2\7,1\2\8,1\2\9,1\3\10,1\3\11,1\4\12,1\4\13,1\4\14,1\5\15,1\5\16,1\5\17
REM DIRNAME cjc020,folder01,folder02,folder03,folder04,folder05,folder06,folder07,folder08,folder09,folder10,folder11,folder12,folder13,folder14,folder15,folder16
TITLE ""
FILE "1900_3_013 sec03_0201_0214.mp3" MP3
  TRACK 01 AUDIO
    TITLE "0:"
    INDEX 01 00:00:00
  TRACK 02 AUDIO
    TITLE "15:cjc020_6369"
    INDEX 01 00:00:17
  TRACK 03 AUDIO
    TITLE "0:"
    INDEX 01 00:01:54
  TRACK 04 AUDIO
    TITLE "17:cjc020_6370"
    INDEX 01 00:02:55
  TRACK 05 AUDIO
    TITLE "0:"
    INDEX 01 00:04:11
  TRACK 06 AUDIO
    TITLE "16:cjc020_6371"
    INDEX 01 00:04:15
  TRACK 07 AUDIO
    TITLE "0:"
    INDEX 01 00:05:32
  TRACK 08 AUDIO
    TITLE "17:cjc020_6372"
    INDEX 01 00:06:14
  TRACK 09 AUDIO
    TITLE "0:"
    INDEX 01 00:07:37
  TRACK 10 AUDIO
    TITLE "16:cjc020_6373"
    INDEX 01 00:07:43
  TRACK 11 AUDIO
    TITLE "0:"
    INDEX 01 00:08:66
  TRACK 12 AUDIO
    TITLE "17:cjc020_6374"
    INDEX 01 00:09:49
  TRACK 13 AUDIO
    TITLE "0:"
    INDEX 01 00:10:72
  TRACK 14 AUDIO
    TITLE "16:cjc020_6375"
    INDEX 01 00:11:07
  TRACK 15 AUDIO
    TITLE "0:"
    INDEX 01 00:12:16
  TRACK 16 AUDIO
    TITLE "17:cjc020_6376"
    INDEX 01 00:13:02
  TRACK 17 AUDIO
    TITLE "0:"
    INDEX 01 00:14:66
  TRACK 18 AUDIO
    TITLE "16:cjc020_6377"
    INDEX 01 00:14:70
  TRACK 19 AUDIO
    TITLE "0:"
    INDEX 01 00:16:06
  TRACK 20 AUDIO
    TITLE "17:cjc020_6378"
    INDEX 01 00:16:63
  TRACK 21 AUDIO
    TITLE "0:"
    INDEX 01 00:18:17
  TRACK 22 AUDIO
    TITLE "16:cjc020_6379"
    INDEX 01 00:18:19
  TRACK 23 AUDIO
    TITLE "0:"
    INDEX 01 00:19:28
  TRACK 24 AUDIO
    TITLE "17:cjc020_6380"
    INDEX 01 00:20:12
  TRACK 25 AUDIO
    TITLE "0:"
    INDEX 01 00:21:25
  TRACK 26 AUDIO
    TITLE "16:cjc020_6381"
    INDEX 01 00:21:31
  TRACK 27 AUDIO
    TITLE "0:"
    INDEX 01 00:22:50
  TRACK 28 AUDIO
    TITLE "17:cjc020_6382"
    INDEX 01 00:23:28
  TRACK 29 AUDIO
    TITLE "0:"
    INDEX 01 00:24:53
  TRACK 30 AUDIO
    TITLE "16:cjc020_6383"
    INDEX 01 00:24:61
  TRACK 31 AUDIO
    TITLE "0:"
    INDEX 01 00:25:72
  TRACK 32 AUDIO
    TITLE "17:cjc020_6384"
    INDEX 01 00:26:58
  TRACK 33 AUDIO
    TITLE "0:"
    INDEX 01 00:28:15
  TRACK 34 AUDIO
    TITLE "16:cjc020_6385"
    INDEX 01 00:28:21
  TRACK 35 AUDIO
    TITLE "0:"
    INDEX 01 00:29:25
  TRACK 36 AUDIO
    TITLE "17:cjc020_6386"
    INDEX 01 00:30:12
  TRACK 37 AUDIO
    TITLE "0:"
    INDEX 01 00:32:33
  TRACK 38 AUDIO
    TITLE "16:cjc020_6387"
    INDEX 01 00:32:43
  TRACK 39 AUDIO
    TITLE "0:"
    INDEX 01 00:33:46
  TRACK 40 AUDIO
    TITLE "17:cjc020_6388"
    INDEX 01 00:34:30
  TRACK 41 AUDIO
    TITLE "0:"
    INDEX 01 00:35:53
  TRACK 42 AUDIO
    TITLE "16:cjc020_6389"
    INDEX 01 00:35:59
  TRACK 43 AUDIO
    TITLE "0:"
    INDEX 01 00:36:74
  TRACK 44 AUDIO
    TITLE "17:cjc020_6390"
    INDEX 01 00:37:59
  TRACK 45 AUDIO
    TITLE "0:"
    INDEX 01 00:39:58
  TRACK 46 AUDIO
    TITLE "16:cjc020_6391"
    INDEX 01 00:39:64
  TRACK 47 AUDIO
    TITLE "0:"
    INDEX 01 00:41:12
  TRACK 48 AUDIO
    TITLE "17:cjc020_6392"
    INDEX 01 00:41:71
  TRACK 49 AUDIO
    TITLE "0:"
    INDEX 01 00:43:03
  TRACK 50 AUDIO
    TITLE "16:cjc020_6393"
    INDEX 01 00:43:09
  TRACK 51 AUDIO
    TITLE "0:"
    INDEX 01 00:44:26
  TRACK 52 AUDIO
    TITLE "17:cjc020_6394"
    INDEX 01 00:45:10
  TRACK 53 AUDIO
    TITLE "0:"
    INDEX 01 00:47:13
  TRACK 54 AUDIO
    TITLE "16:cjc020_6395"
    INDEX 01 00:47:17
  TRACK 55 AUDIO
    TITLE "0:"
    INDEX 01 00:48:28
  TRACK 56 AUDIO
    TITLE "17:cjc020_6396"
    INDEX 01 00:49:12
  TRACK 57 AUDIO
    TITLE "0:"
    INDEX 01 00:50:42
  TRACK 58 AUDIO
    TITLE "16:cjc020_6397"
    INDEX 01 00:50:46
  TRACK 59 AUDIO
    TITLE "0:"
    INDEX 01 00:51:48
